<?xml version="1.0" encoding="UTF-8"?>
<!DOCTYPE svg PUBLIC "-//W3C//DTD SVG 1.1//EN" "http://www.w3.org/Graphics/SVG/1.1/DTD/svg11.dtd">
<svg version="1.1" xmlns="http://www.w3.org/2000/svg" xmlns:xlink="http://www.w3.org/1999/xlink" x="0" y="0" width="942" height="1220" viewBox="0, 0, 942, 1220">
  <defs>
    <clipPath id="Clip_1">
      <path d="M-0,1220 L941.33,1220 L941.33,0.13 L-0,0.13 z"/>
    </clipPath>
  </defs>
  <g id="Layer_1">
    <g clip-path="url(#Clip_1)">
      <path d="M351.55,1035.64 C339.949,1045.95 326.808,1051.39 312.653,1054.02 C268.018,1062.31 231.427,1048.2 203.671,1012.58 C186.014,989.926 173.378,964.075 160.298,938.627 C146.233,911.261 132.676,883.634 118.78,856.18 C116.955,852.573 116.851,849.288 118.521,845.711 C120.922,840.571 123.562,835.57 126.973,831.03 C128.306,829.255 128.649,827.717 127.665,825.575 C124.242,818.114 126.345,811.646 131.649,805.888 C132.856,804.577 134.364,803.741 132.047,801.637 C118.109,788.979 104.233,776.246 90.569,763.293 C69.098,742.938 43.923,728.061 18.265,713.878 C10.901,709.807 4.869,704.597 1.772,696.554 C-2.905,684.406 1.918,671.346 13.385,665.045 C14.837,664.247 16.356,663.573 18.18,662.676 C9.729,653.726 4.359,643.652 9.038,631.215 C13.802,618.551 24.642,615.44 37.139,615.158 C36.299,610.831 35.032,606.728 35.57,602.407 C37.237,589.033 48.854,580.225 63.486,582.576 C69.773,583.586 72.782,583.26 75.784,576.727 C80.125,567.282 92.864,563.802 105.75,566.566 C113.659,568.262 120.861,571.667 127.712,575.784 C161.823,596.285 193.422,619.94 220.345,649.928 C222.687,645.266 224.918,640.504 227.43,635.896 C231.918,627.663 237.056,619.886 244.69,614.151 C252.582,608.223 261.223,605.059 270.752,609.577 C280.172,614.042 283.606,622.588 284.353,632.429 C284.932,640.055 283.758,647.579 280.316,654.304 C273.166,668.273 272.026,683.286 271.504,698.476 C270.962,714.28 271.579,730.154 268.554,745.797 C268.227,747.488 268.707,748.247 270.305,748.616 C271.1,748.799 272.079,749.037 272.56,749.603 C279.381,757.627 289.479,762.399 294.628,772.101 C302.103,786.185 309.729,800.19 317.56,814.728 C321.925,809.693 326.766,805.962 331.641,802.282 C333.545,800.845 333.985,798.787 334.657,796.721 C344.41,766.696 360.304,740.895 386.083,721.85 C400.495,711.204 416.951,705.058 433.889,700.054 C438.686,698.637 441.515,696.272 442.613,691.284 C443.602,686.791 445.36,682.468 446.779,678.069 C442.368,676.755 437.955,675.448 433.547,674.125 C369.523,654.911 317.406,619.572 282.006,561.804 C260.659,526.967 249.324,488.82 245.261,448.334 C239.467,390.592 250.317,335.305 269.545,281.191 C277.9,257.678 286.381,234.22 296.347,211.334 C297.807,207.981 297.299,204.851 296.872,201.58 C292.313,166.62 293.842,132.078 304.368,98.241 C313.285,69.575 327.687,44.489 353.008,27.056 C370.561,14.971 390.694,9.108 411.094,4.13 C444.924,-4.126 477.475,1.08 509.385,13.508 C531.83,22.251 554.273,31.053 578.088,35.588 C596.529,39.099 615.199,39.09 633.852,39.485 C660.826,40.057 687.856,39.729 714.614,44.091 C738.59,48 761.221,55.034 779.727,71.841 C800.284,90.511 811.144,113.645 811.798,141.422 C811.881,144.959 812.909,146.996 815.989,148.914 C837.536,162.334 849.34,182.769 856.358,206.399 C864.635,234.272 865.06,262.894 863.823,291.616 C862.955,311.772 860.782,331.805 857.543,351.721 C857.279,353.348 857.07,354.806 858.438,356.335 C877.874,378.049 878.588,402.594 868.122,428.125 C859.927,448.116 845.446,462.339 824.907,469.877 C823.032,470.565 821.886,471.335 821.166,473.331 C804.877,518.539 776.196,555.331 742.626,588.803 C731.517,599.879 719.285,609.675 707.465,619.94 C705.423,621.714 704.019,622.775 706.016,625.851 C708.742,630.05 707.96,634.963 706.106,639.344 C704.107,644.067 704.559,647.738 707.708,652.039 C711.507,657.229 714.278,663.208 717.177,669.004 C718.558,671.765 720.451,673.175 723.327,674.151 C763.118,687.651 802.113,703.21 841.134,718.785 C882.385,735.248 905.055,765.764 914.394,807.927 C920.686,836.334 921.39,865.056 919.793,893.932 C919.635,896.79 919.703,899.537 920.319,902.336 C932.755,958.769 940.699,1015.86 941.29,1073.63 C941.759,1119.52 938.226,1165.21 922.452,1209 C918.799,1219.14 917.588,1219.85 906.892,1219.85 C721.395,1219.85 535.898,1219.82 350.402,1220 C343.566,1220 338.917,1215.63 339.096,1208.89 C340.313,1163.05 343.523,1117.36 347.961,1071.75 C349.101,1060.03 350.289,1048.32 351.55,1035.64" fill="#2F201B"/>
    </g>
    <path d="M726.505,924.98 C726.5,922.48 726.212,919.941 726.553,917.489 C727.218,912.702 725.246,910.592 720.583,911.089 C716.446,911.53 715.326,909.876 715.328,905.799 C715.331,895.974 714.696,886.15 714.466,876.323 C714.374,872.4 712.821,869.574 708.794,869.592 C704.439,869.611 702.993,872.618 703.173,876.761 C703.608,886.749 703.782,896.749 704.295,906.732 C704.452,909.775 703.717,910.657 700.526,910.667 C685.032,910.716 669.529,910.778 654.064,911.91 C651.388,912.106 649.49,911.465 647.518,909.473 C638.836,900.703 628.453,897.047 616.109,900.002 C615.77,898.243 617.318,897.776 618.116,896.944 C652.966,860.598 689.245,825.739 727.115,792.549 C730.003,790.019 730.417,788.901 726.855,786.571 C713.662,777.94 700.691,768.968 686.841,759.585 C699.276,756 710.948,752.625 722.627,749.275 C726.301,748.221 729.941,746.902 733.693,746.308 C737.699,745.674 738.335,744.169 737.14,740.371 C731.196,721.487 724.46,702.902 716.941,684.593 C716.642,683.864 716.41,683.106 715.788,681.349 C725.914,684.772 735.29,687.818 744.582,691.104 C776.045,702.233 806.79,715.156 837.672,727.789 C878.822,744.623 900.187,775.979 908.271,818.187 C912.587,840.725 914.328,863.488 912.52,886.322 C911.334,901.309 915.349,915.394 917.808,929.75 C928.448,991.88 933.703,1054.33 929.074,1117.34 C926.899,1146.94 922.506,1176.21 913.37,1204.62 C912.194,1208.27 910.568,1209.35 906.764,1209.34 C855.6,1209.2 804.435,1209.19 753.271,1209.34 C748.833,1209.36 748.279,1208.4 749.034,1204.12 C753.628,1178.06 758.16,1151.98 762.063,1125.8 C763.887,1113.57 761.535,1101.2 760.893,1088.91 C758.904,1050.81 756.594,1012.72 754.428,974.624 C753.359,955.826 752.675,936.998 751.13,918.24 C750.435,909.812 746.383,902.013 744.154,893.84 C743.542,891.599 742.781,889.398 742.088,887.178 C741.107,886.502 740.902,885.4 740.567,884.427 C740.452,884.159 740.418,883.938 740.479,883.813 C740.311,884.382 740.664,884.851 740.779,885.376 C741.314,886.617 740.382,888.037 741.275,889.223 C742.246,894.449 743.016,899.723 744.226,904.894 C748.518,923.223 747.953,941.981 749.106,960.563 C752.306,1012.11 755.03,1063.69 758.037,1115.26 C758.678,1126.24 755.584,1136.71 753.979,1147.36 C751.103,1166.45 747.465,1185.43 744.58,1204.52 C743.931,1208.81 742.233,1209.32 738.52,1209.32 C657.859,1209.22 577.199,1209.24 496.539,1209.24 C488.873,1209.24 481.201,1209.07 473.543,1209.32 C470.239,1209.43 469.453,1208.42 469.297,1205.18 C467.806,1174.33 468.493,1143.56 472.137,1112.87 C472.266,1111.78 472.813,1110.57 471.264,1109.42 C469.434,1111.95 469.641,1114.93 469.368,1117.68 C466.544,1146.08 465.652,1174.53 467.155,1203.04 C467.482,1209.24 467.376,1209.24 460.959,1209.24 C425.296,1209.24 389.631,1209.17 353.968,1209.35 C349.933,1209.36 349.115,1208.24 349.22,1204.39 C350.709,1149.89 355.254,1095.63 361.105,1041.45 C366.916,987.632 374.536,934.072 383.435,880.689 C383.844,878.239 384.093,875.762 384.417,873.298 C384.789,871.641 384.504,869.916 384.942,868.268 C385.577,866.685 385.952,865.049 385.921,863.334 C386.331,861.729 386.736,860.123 386.89,858.468 C387.341,857.146 387.418,855.733 387.873,854.412 C388.008,853.79 388.389,853.226 388.31,852.553 C388.259,852.877 388.182,853.194 388.072,853.532 C387.607,854.838 387.389,856.177 387.098,857.501 C386.653,859.355 386.507,861.272 385.897,863.09 C385.839,864.547 385.787,866.004 385.172,867.365 C384.623,868.951 384.824,870.794 383.544,872.13 C372.888,918.505 361.864,964.804 355.058,1011.96 C354.849,1013.41 354.628,1014.82 353.735,1016.17 C341.332,1034.92 323.27,1043.86 301.497,1045.96 C264.063,1049.58 233.985,1035.73 211.311,1006.19 C195.352,985.396 183.597,961.951 171.615,938.757 C157.189,910.833 143.365,882.598 129.117,854.58 C127.569,851.534 127.605,849.182 129.232,846.323 C131.615,842.135 134.006,837.979 137.371,833.695 C139.74,838.119 141.951,842.249 144.416,846.852 C142.547,847.053 140.997,847.205 139.452,847.391 C138.153,847.547 136.382,847.529 136.601,849.334 C136.808,851.031 138.449,850.741 139.827,850.683 C152.52,850.149 165.012,848.202 177.298,845.073 C210.31,836.666 241.213,823.687 268.166,802.381 C271.159,800.016 273.89,797.283 276.536,794.523 C282.923,787.86 286.13,780.496 279.874,771.247 C283.693,771.408 284.214,773.727 285.142,775.465 C296.247,796.27 307.802,816.82 319.71,837.105 C320.812,836.999 320.904,836.241 320.672,835.663 C318.23,829.577 321.533,825.367 325.257,821.25 C333.459,812.181 339.129,801.844 343.865,790.428 C356.632,759.654 376.438,734.455 406.582,718.611 C417.492,712.877 429.347,709.501 442.53,704.535 C436.06,714.955 436.16,726.453 429.594,735.502 C426.174,740.215 423.022,745.123 419.602,749.836 C418.079,751.934 418.228,752.911 420.58,754.411 C422.925,755.907 427.203,756.02 427.153,759.603 C427.083,764.569 427.658,770.075 422.56,773.595 C421.21,774.528 420.303,776.102 418.955,777.038 C410.36,782.997 408.657,791.185 409.217,801.243 C411.103,835.049 419.706,867.188 431.795,898.558 C443.604,929.2 458.363,958.408 475.055,986.655 C476.454,989.022 477.215,991.319 477.088,994.148 C476.143,1015.31 476.528,1036.46 478.159,1057.58 C478.451,1061.35 477.275,1064.8 476.816,1068.41 C476.662,1069.63 474.22,1072.71 478.749,1071.77 C479.672,1071.58 479.404,1073.68 479.538,1074.72 C481.437,1089.43 483.785,1104.02 488.323,1118.21 C494.986,1139.03 507.767,1153.3 530.105,1156.99 C559.9,1161.91 582.033,1148.71 592.263,1120.26 C599.118,1101.18 600.538,1081.25 601.171,1061.24 C602.062,1033.07 599.989,1004.94 600.161,976.777 C600.245,962.945 600.439,949.116 603.328,935.501 C603.844,933.066 604.601,930.681 605.261,928.277 C607.439,920.343 611.498,916.167 620.85,915.657 C648.806,914.133 676.748,912.778 704.747,912.489 C708.607,912.45 709.67,913.59 709.444,917.223 C709.238,920.533 709.598,923.88 709.748,927.209 C709.824,928.9 710.005,930.896 712.233,930.683 C714.018,930.513 714.202,928.744 714.112,927.132 C713.906,923.473 713.903,919.795 713.532,916.153 C713.249,913.381 714.283,912.829 716.877,912.915 C724.251,913.161 724.104,913.062 725.052,920.521 C725.404,923.297 724.07,926.379 726.328,928.863 C727.443,930.164 726.143,931.497 726.367,932.737 C726.822,930.206 727.245,927.602 726.505,924.98" fill="#FEFEFE"/>
    <path d="M528.086,741.632 C517.93,725.925 508.442,711.69 499.494,697.123 C497.082,693.197 497.961,688.023 497.495,683.417 C496.433,672.93 497.181,675.017 488.507,674.218 C433.524,669.156 384.135,650.065 341.521,614.758 C297.546,578.323 271.047,531.266 259.427,475.64 C250.323,432.061 251.608,388.469 261.496,345.28 C273.206,294.132 289.045,244.263 311.388,196.637 C319.135,180.123 328.596,164.762 341.422,151.586 C371.735,120.446 408.117,114.203 446.994,133.635 C454.455,137.364 461.601,141.641 468.053,146.909 C494.242,168.289 524.667,180.195 557.504,186.028 C612.773,195.845 668.18,195.6 723.555,186.492 C729.676,185.485 729.667,185.434 729.349,191.3 C726.756,239.127 729.537,286.483 741.708,333.027 C742.162,334.762 742.176,336.646 742.177,338.46 C742.187,357.956 742.153,377.451 742.132,396.947 C742.13,398.56 742.132,400.174 742.132,402.605 C752.193,396.735 761.659,391.324 770.972,385.661 C772.388,384.799 773.157,382.807 774.116,381.268 C783.301,366.528 795.747,355.918 813,352.262 C835.271,347.542 855.231,359.62 862.058,381.317 C872.812,415.494 848.85,455.791 813.672,462.497 C804.94,464.161 796.446,462.99 788.389,459.081 C787.096,458.453 785.633,457.269 784.486,459.151 C783.294,461.103 784.482,462.373 786.217,462.987 C788.255,463.708 787.945,464.881 787.482,466.497 C767.151,537.508 732.793,598.538 666.362,636.723 C664.015,638.072 663.102,639.595 663.224,642.268 C663.468,647.59 663.121,652.952 663.58,658.249 C663.877,661.688 662.54,663.234 659.704,664.738 C620.536,685.503 581.439,706.401 542.288,727.199 C536.39,730.333 530.243,733.049 528.086,741.632" fill="#FBE4DB"/>
    <path d="M746.348,394.815 C746.348,383.112 745.964,372.11 746.436,361.144 C747.172,344.084 745.386,327.419 741.23,310.855 C737.927,297.689 736.681,284.15 735.166,270.65 C733.217,253.288 732.508,235.852 732.705,218.487 C732.83,207.45 732.364,196.222 734.352,185.216 C735.074,181.225 733.377,180.546 729.759,181.059 C714.169,183.27 698.475,184.246 682.764,185.312 C663.446,186.622 644.129,186.532 624.878,185.878 C589.524,184.678 554.555,180.126 520.726,169.052 C500.797,162.528 482.849,152.365 465.763,140.247 C451.585,130.191 435.9,123.139 418.539,119.854 C393.555,115.127 371.575,121.599 351.584,136.389 C331.898,150.953 318.419,170.565 306.977,191.8 C305.9,193.798 305.407,196.186 303.48,197.647 C302.116,197.123 302.408,196 302.387,195.06 C301.729,165.916 303.48,137.043 311.202,108.726 C317.465,85.758 327.273,64.653 343.854,47.361 C352.972,37.852 363.929,30.562 376.305,25.559 C392.361,19.068 408.762,13.697 425.923,11.28 C446.054,8.445 465.905,10.135 485.486,15.94 C505.111,21.758 523.74,30.29 543.196,36.523 C562.988,42.863 583.064,47.289 603.996,48.373 C618.317,49.115 632.614,48.412 646.888,49.184 C675.641,50.738 704.646,49.87 732.74,58.013 C770.639,68.997 794.768,93.301 803.914,131.838 C805.191,137.219 805.97,142.973 805.221,148.65 C805.005,150.29 804.909,151.272 806.782,152.151 C825.808,161.076 836.485,177.089 843.416,196.083 C849.601,213.031 852.084,230.669 853.526,248.614 C854.557,261.44 854.649,274.245 854.148,287.003 C853.402,306.012 851.887,325.011 848.615,343.809 C848.058,347.005 849.043,351.561 846.447,352.914 C844.712,353.818 841.007,350.516 838.037,349.544 C822.525,344.467 807.814,346.927 794.012,355.06 C784.887,360.436 777.143,367.541 771.985,376.898 C769.388,381.607 765.339,384.16 761.04,386.644 C756.451,389.295 751.779,391.803 746.348,394.815" fill="#674924"/>
    <path d="M30.467,671.246 C40.142,671.094 48.651,674.76 56.613,679.773 C66.738,686.148 76.766,692.685 86.667,699.402 C89.902,701.595 92.136,701.76 95.335,699.114 C110.085,686.913 125.041,674.958 139.987,662.994 C146.355,657.896 153.159,653.409 160.292,649.44 C161.851,648.572 163.424,647.623 162.297,645.632 C161.094,643.508 159.191,644.579 158.061,645.619 C153.388,649.925 150.229,647.808 146.198,644.124 C127.518,627.05 108.414,610.473 86.883,596.939 C80.209,592.743 80.934,582.303 87.916,578.057 C93.297,574.784 99.089,575.253 104.865,576.542 C109.262,577.522 113.465,579.21 117.345,581.463 C153.516,602.475 187.111,626.733 214.413,658.872 C214.629,659.126 214.856,659.371 215.068,659.628 C221.513,667.447 221.453,667.425 214.039,674.295 C203.687,683.886 195.571,695.236 188.393,707.311 C187.517,708.785 187.079,709.702 189.033,710.785 C191.057,711.906 191.633,710.761 192.43,709.409 C200.261,696.136 209.344,683.88 221.306,673.973 C222.682,672.834 222.97,671.176 223.544,669.618 C228.78,655.396 234.303,641.306 243.645,629.127 C247.139,624.572 251.324,620.777 256.712,618.595 C263.5,615.846 269.297,618.147 272.342,624.869 C275.951,632.833 275.484,641.284 271.8,648.633 C262.006,668.166 261.728,689.074 261.314,710.052 C261.084,721.713 261.878,733.662 258.382,744.768 C255.918,752.595 256.9,758.686 261.257,764.886 C263.327,767.831 262.849,769.794 260.03,772.236 C240.583,789.08 217.822,799.711 193.788,807.963 C183.729,811.417 173.426,814.035 162.992,816.168 C160.189,816.741 158.6,816.549 158.04,813.432 C157.288,809.248 154.508,806.621 151.149,804.172 C133.857,791.567 118.892,776.298 103.555,761.522 C80.198,739.017 53.265,721.782 25.108,706.185 C22.205,704.576 19.185,703.151 16.691,700.886 C11.187,695.887 8.498,689.751 10.793,682.507 C13.05,675.383 18.98,672.371 25.979,671.279 C27.441,671.051 28.969,671.246 30.467,671.246" fill="#FBE4DB"/>
    <path d="M695.885,650.787 C702.49,658.317 706.523,666.762 710.35,675.112 C719.844,695.83 727.512,717.277 734.46,738.991 C735.766,743.073 734.52,743.933 731,744.881 C716.404,748.813 701.876,753.004 687.34,757.159 C685.98,757.548 683.832,757.429 683.53,758.886 C683.118,760.87 685.483,761.269 686.753,762.136 C700.058,771.226 713.412,780.242 726.971,789.427 C716.477,798.945 706.205,808.163 696.041,817.499 C667.439,843.774 639.796,871.032 612.972,899.116 C608.939,903.338 602.895,905.213 599.877,910.49 C594.099,920.592 585.5,928.336 577.917,936.917 C547.237,971.637 517.784,1007.31 492.146,1045.99 C491.915,1046.34 491.475,1046.55 490.561,1047.28 C490.635,1037.56 489.326,1028.61 492.62,1019.43 C511.992,965.44 537.126,914.12 563.748,863.454 C566.156,858.872 569.239,855.492 573.544,852.647 C587.667,843.316 600.726,832.37 610.863,818.95 C633.589,788.864 654.336,757.442 669.973,722.901 C679.878,701.024 686.891,678.147 694.312,655.397 C694.751,654.052 695.225,652.719 695.885,650.787" fill="#FEFEFE"/>
    <path d="M493.444,1056.01 C488.973,1054.51 490.853,1051.78 492.408,1049.51 C499.264,1039.5 506.091,1029.47 513.235,1019.67 C533.632,991.703 555.781,965.148 578.809,939.318 C579.193,938.888 579.357,938.033 580.358,938.276 C581.239,939.798 580.215,941.436 580.491,943.009 C580.869,943.721 580.77,944.552 581.062,945.281 C581.19,945.601 581.074,946.065 581.547,946.208 C581.638,945.731 581.901,945.348 582.206,944.987 C581.11,936.239 585.528,930.218 592.141,925.093 C583.342,964.001 588.708,1003.23 588.377,1042.28 C588.188,1064.6 588.099,1086.88 582.3,1108.67 C581.058,1113.33 579.423,1117.85 577.34,1122.21 C569.791,1138.02 557.208,1145.52 539.775,1144.98 C522.576,1144.44 509.94,1136.98 503.056,1120.74 C497.879,1108.52 495.747,1095.58 493.639,1082.61 C493.385,1081.05 494.278,1081.04 495.342,1081.08 C496.456,1080.9 497.536,1081.07 498.603,1081.38 C500.684,1081.99 502.767,1082.1 504.848,1081.38 C505.646,1081.07 506.391,1080.67 507.096,1080.18 C509.441,1078.53 511.393,1076.46 513.392,1074.44 C514.355,1073.23 514.74,1071.8 514.965,1070.31 C515.126,1068.58 515.145,1066.85 515.003,1065.12 C514.907,1063.83 514.399,1062.7 513.636,1061.68 C512.731,1060.49 511.608,1059.48 510.719,1058.28 C509.919,1056.91 508.614,1056.22 507.192,1055.69 C506.593,1055.42 506.01,1055.11 505.414,1054.84 C503.061,1054 500.627,1054.44 498.23,1054.39 C496.626,1054.28 495.422,1055.28 494.086,1055.9 C493.872,1055.94 493.658,1055.97 493.444,1056.01" fill="#FEFEFE"/>
    <path d="M492.846,685.615 C492.062,695.961 497.948,703.253 503.34,710.821 C510.386,720.711 517.362,730.657 524.123,740.743 C526.526,744.327 528.461,744.364 530.858,741.08 C533.788,737.066 537.867,734.62 542.172,732.334 C582.634,710.853 623.05,689.286 663.514,667.81 C666.45,666.251 668.994,664.72 668.156,660.441 C674.309,666.533 674.265,671.429 668.106,681.118 C653.026,704.837 638.307,728.778 623.904,752.913 C618.366,762.194 612.782,771.453 607.516,780.888 C605.541,784.425 604.474,785.513 600.524,782.56 C585.062,770.998 568.678,760.891 550.572,753.858 C519.882,741.937 501.77,747.049 481.803,773.319 C479.5,776.349 477.358,779.501 474.319,783.744 C473.659,749.001 475.291,716.003 492.846,685.615" fill="#FBE3ED"/>
    <path d="M476.886,985.682 C473.521,979.748 470.634,974.786 467.867,969.758 C445.657,929.412 426.865,887.69 416.926,842.441 C413.272,825.807 411.281,808.978 411.398,791.909 C411.419,788.847 412.255,786.626 414.508,784.508 C418.197,781.041 421.548,777.215 425.962,772.571 C426.381,781.749 425.921,789.339 426.863,796.885 C427.814,804.504 430.233,811.859 431.244,819.366 C433.453,835.774 442.977,847.349 454.401,857.949 C458.938,862.16 464.215,865.433 469.902,867.802 C472.825,869.02 473.847,870.691 474.048,873.672 C475.286,891.956 477.548,910.11 481.111,928.102 C482.097,933.08 480.441,938.031 480.116,943.002 C479.214,956.791 478.05,970.563 476.886,985.682" fill="#FEFEFE"/>
    <path d="M472.045,846.679 C461.895,839.945 456.259,830.706 450.958,820.736 C437.296,795.041 441.939,768.664 446.884,742.21 C449.618,727.582 454.668,713.561 461.873,700.643 C467.385,690.763 477.056,684.6 486.757,678.977 C487.163,678.741 487.724,678.633 488.194,678.674 C489.498,678.79 490.792,679.017 492.62,679.274 C485.114,689.98 480.463,701.561 477.172,713.783 C473.568,727.168 471.752,740.819 471.303,754.595 C470.421,781.706 471.83,808.813 472.042,835.924 C472.067,839.228 472.045,842.533 472.045,846.679" fill="#FEFEFE"/>
    <path d="M262.194,757.61 C268.337,756.272 271.038,759.517 273.271,763.129 C276.442,768.255 278.143,774.054 279.975,779.738 C281.045,783.056 278.986,785.866 277.204,788.463 C272.605,795.165 266.366,800.23 259.776,804.752 C226.88,827.323 190.547,841.069 151.085,846.694 C149.157,846.969 148.069,846.617 147.063,844.848 C142.699,837.172 138.819,829.284 135.854,820.956 C134.066,815.933 137.583,813.124 140.545,810.343 C142.279,808.715 143.724,805.207 146.785,806.737 C150.511,808.6 153.549,811.531 154.288,816.074 C154.582,817.884 153.389,817.877 152.196,818.012 C149.22,818.347 146.254,818.77 143.273,819.039 C141.641,819.186 140.079,819.515 140.141,821.44 C140.217,823.822 142,823.652 143.791,823.473 C163.418,821.519 182.421,816.874 200.931,810.163 C223.408,802.013 244.653,791.606 262.79,775.676 C265.409,773.375 267.771,770.775 270.179,768.244 C271.605,766.744 271.269,764.051 269.669,764.398 C263.399,765.76 265.123,759.93 262.194,757.61" fill="#FBE3ED"/>
    <path d="M119.528,673.644 C110.33,681.075 101.396,688.2 92.59,695.479 C90.698,697.043 89.518,695.847 88.214,694.998 C82.229,691.103 76.086,687.409 70.381,683.134 C58.236,674.036 43.361,669.613 31.494,660.07 C28.389,657.572 24.899,655.525 22.398,652.348 C17.931,646.672 15.327,640.414 18.871,633.428 C22.323,626.625 28.797,624.983 35.805,625.286 C42.887,625.593 49.454,628.008 55.738,631.137 C78.627,642.533 98.76,658.048 119.528,673.644" fill="#FBE4DB"/>
    <path d="M497.31,910.066 C498.339,898.884 500.609,887.932 503.423,877.081 C505.849,873.958 509.521,876.734 512.284,875.211 C513.259,875.166 514.234,875.121 515.208,875.076 C517.113,873.95 519.369,875.266 521.282,874.201 C529.558,872.683 537.843,871.217 545.521,867.506 C547.394,866.6 547.996,867.543 548.451,869.431 C550.254,876.924 550.887,883.807 546.922,891.348 C532.223,919.305 518.896,947.942 506.783,977.131 C505.984,979.057 504.876,980.854 503.446,983.606 C498.019,973.085 491.657,963.894 492.407,952.082 C493.612,949.514 492.085,946.639 493.306,944.073 C493.338,943.079 493.369,942.084 493.401,941.09 C494.583,938.84 493.123,936.253 494.302,934.002 C494.333,933.039 494.365,932.076 494.396,931.114 C495.552,929.214 494.16,926.934 495.302,925.033 C495.367,921.69 495.025,918.302 496.392,915.102 C497.498,913.569 496.212,911.6 497.31,910.066" fill="#A63737"/>
    <path d="M147.764,651.373 C139.908,657.457 132.364,663.176 124.986,669.101 C123.244,670.5 122.269,670.119 120.752,668.952 C102.56,654.955 83.925,641.634 64.051,630.045 C58.095,626.572 52.674,621.836 48.911,615.757 C45.412,610.103 43.499,603.983 47.55,597.948 C51.617,591.889 58.055,591.501 64.587,592.528 C69.375,593.28 73.939,594.94 78.171,597.281 C104.177,611.662 125.57,631.931 147.764,651.373" fill="#FBE4DB"/>
    <path d="M547.862,845.033 C544.488,827.161 541.203,809.573 537.802,792.008 C537.427,790.074 538.629,789.295 539.602,788.241 C546.714,780.538 553.957,772.951 560.887,765.088 C562.699,763.032 563.894,763.379 565.845,764.432 C577.85,770.912 589.249,778.33 600.305,786.305 C602.135,787.626 602.797,788.465 601.662,791.009 C590.665,815.671 572.027,832.659 547.862,845.033" fill="#FBE3ED"/>
    <path d="M674.289,637.493 C679.784,633.784 684.283,630.968 688.522,627.803 C691.191,625.812 693.699,625.587 696.286,627.423 C698.954,629.318 699.241,631.99 698.288,634.999 C693.917,648.794 689.624,662.614 685.257,676.411 C669.924,724.855 646.365,768.926 614.9,808.805 C612.638,811.672 610.798,814.119 608.038,809.311 C606.825,807.197 602.758,806.904 603.007,804.532 C603.226,802.447 605.895,800.638 607.433,798.67 C638.734,758.618 661.643,714.227 676.306,665.562 C678.609,657.917 680.827,650.231 683.553,642.734 C685.122,638.419 683.709,637.456 679.771,637.766 C678.357,637.878 676.916,637.639 674.289,637.493" fill="#E3E7EA"/>
    <path d="M534.302,788.902 C536.457,800.904 538.593,812.91 540.774,824.908 C541.893,831.067 542.999,837.232 544.284,843.358 C545.083,847.166 542.235,847.956 539.856,848.78 C533.786,850.882 527.723,853.08 521.334,854.102 C519.828,855.252 517.863,853.942 516.346,855.032 C515.683,855.065 515.02,855.099 514.357,855.132 C508.655,855.883 502.953,855.865 497.25,855.146 C493.954,854.319 495.575,852.285 496.111,850.514 C502.202,830.395 508.293,810.277 514.383,790.159 C515.213,787.99 517.332,787.497 519.088,786.521 C519.521,786.334 519.967,786.203 520.426,786.101 C523.514,785.467 526.569,786.379 529.648,786.274 C531.506,786.605 533.721,786.315 534.302,788.902" fill="#A63737"/>
    <path d="M499.604,759.766 C502.69,769.661 506.405,778.691 510.474,787.571 C511.308,789.391 511.311,790.911 510.73,792.796 C504.76,812.177 498.843,831.575 493.053,851.01 C492.196,853.889 490.997,854.517 488.102,853.778 C475.733,850.624 475.579,850.634 475.458,837.943 C475.314,822.784 475.315,807.623 475.233,792.463 C475.222,790.449 475.354,788.568 476.505,786.747 C482.764,776.84 489.829,767.642 499.604,759.766" fill="#FBE3ED"/>
    <path d="M433.744,819.07 C428.008,801.501 427.388,783.631 428.858,765.576 C431.419,734.123 442.557,705.447 457.023,677.784 C459.141,673.735 461.734,675.166 464.458,675.635 C471.035,676.769 471.07,676.858 468.035,682.644 C455.605,706.343 445.206,730.734 441.745,757.594 C439.406,775.746 438.942,793.806 443.898,811.627 C444.711,814.549 444.487,815.763 441.194,816.233 C438.816,816.573 436.585,817.943 433.744,819.07" fill="#E3E7EA"/>
    <path d="M534.302,788.902 C532.671,788.302 531.039,787.702 529.408,787.102 C528.504,787.121 527.694,786.804 526.907,786.405 C525.178,785.922 523.442,786.007 521.704,786.334 C520.929,786.677 519.951,786.408 519.299,787.127 L519.372,787.08 C517.395,787.467 515.695,789.638 513.405,788.008 C510.023,779.123 506.756,770.191 503.194,761.378 C501.994,758.412 502.66,756.86 505.404,755.519 C509.552,753.491 513.744,751.69 518.356,751.053 C521.347,750.363 524.337,750.366 527.328,751.051 C536.65,753.002 545.854,755.317 554.599,759.231 C559.697,761.512 559.821,761.909 555.786,766.163 C548.61,773.729 541.462,781.321 534.302,788.902" fill="#A63737"/>
    <path d="M745.124,571.63 C766.056,540.349 780.449,506.387 790.621,470.523 C791.761,466.502 793.331,465.055 797.491,466.581 C800.978,467.86 804.769,467.185 808.402,467.057 C812.18,466.923 812.597,468.245 811.408,471.474 C806.451,484.929 800.212,497.737 792.892,510.068 C780.286,531.304 765.022,550.488 748.323,568.59 C747.328,569.669 746.193,570.619 745.124,571.63" fill="#674924"/>
    <path d="M596.026,804.962 C617.653,767.165 639.624,730.286 663.278,692.898 C662.2,713.719 609.364,801.378 596.026,804.962" fill="#FDFDFD"/>
    <path d="M506.529,1054.1 C506.839,1054.51 507.149,1054.92 507.459,1055.33 C509.092,1055.68 510.485,1056.37 511.175,1058.03 C512.227,1058.91 513.28,1059.79 514.333,1060.67 C514.347,1062.53 515.605,1064.04 515.813,1065.85 C515.794,1067.52 515.902,1069.2 515.734,1070.87 C514.654,1072.03 515.121,1073.71 514.374,1074.98 C512.236,1077.16 510.339,1079.61 507.579,1081.1 C505.968,1081.21 504.541,1082.19 502.883,1082.08 C501.679,1082.08 500.474,1082.14 499.277,1081.95 C497.927,1081.45 496.203,1081.8 495.332,1080.21 C493.521,1079.28 493.031,1077.66 492.864,1075.77 C492.446,1071.04 492.109,1066.3 491.39,1061.62 C491.016,1059.18 492.484,1057.77 493.443,1056.01 C493.444,1056.01 493.282,1056.15 493.282,1056.15 C494.837,1054.9 496.582,1054.05 498.551,1053.69 C501.221,1053.6 503.899,1053.39 506.529,1054.1" fill="#FDFDFD"/>
    <path d="M491.925,967.764 C495.01,974.068 497.869,980.375 501.639,986.207 C502.234,987.127 502.34,987.974 501.935,989.003 C499.039,996.361 496.178,1003.73 493.201,1011.37 C491.178,1009.24 489.968,1007.29 490.033,1004.61 C490.33,992.353 490.437,980.086 491.925,967.764" fill="#FDFDFD"/>
    <path d="M675.068,662.203 C667.732,657.745 667.48,651.177 667.642,644.226 C667.709,641.321 668.652,640.759 671.086,641.22 C671.248,641.25 671.417,641.243 671.582,641.257 C681.385,642.073 681.388,642.074 678.432,651.528 C677.314,655.106 676.179,658.679 675.068,662.203" fill="#FCFCFC"/>
    <path d="M481.283,900.867 C482.594,892.009 486.484,883.872 488.475,875.202 C488.637,874.498 489.226,874.071 489.979,874.317 C491.202,874.717 490.566,875.639 490.427,876.363 C489.405,881.688 488.261,886.992 487.344,892.335 C486.23,898.827 485.282,905.349 484.309,911.865 C484.105,913.228 483.921,914.514 482.404,915.051 C481.207,913.953 482.435,912.243 481.406,911.102 C481.091,909.754 480.775,908.405 480.459,907.057 C481.45,905.089 480.241,902.828 481.283,900.867" fill="#A53A38"/>
    <path d="M479.109,893.066 C478.459,885.853 477.809,878.64 477.148,871.306 C486.314,872.934 486.312,872.933 483.804,881.042 C482.542,885.12 481.291,889.202 480.035,893.283 C479.726,893.211 479.418,893.138 479.109,893.066" fill="#F5DFE8"/>
    <path d="M553.469,878.707 C552.652,874.208 552.089,870.848 551.419,867.51 C551.045,865.648 552.033,864.868 553.521,864.182 C556.337,862.882 559.093,861.455 563.379,859.336 C559.839,866.256 556.924,871.953 553.469,878.707" fill="#F5DFE8"/>
    <path d="M431.083,738.338 C430.174,743.049 429.282,747.764 428.342,752.468 C428.136,753.497 428.645,755.484 427.133,755.202 C425.28,754.856 423.562,753.545 421.907,752.465 C420.624,751.629 421.669,750.733 422.19,749.967 C424.879,746.012 427.593,742.074 430.299,738.13 C430.56,738.199 430.822,738.269 431.083,738.338" fill="#F5F5F5"/>
    <path d="M726.505,924.98 C727.583,929.004 727.114,933.067 726.944,937.885 C724.198,934.514 726.014,931.645 726.328,928.863 C726.387,927.568 726.446,926.274 726.505,924.98" fill="#929292"/>
    <path d="M497.25,855.146 C502.952,855.142 508.655,855.137 514.357,855.132 C508.656,856.697 502.954,856.701 497.25,855.146" fill="#86675A"/>
    <path d="M489.916,1011.56 C492.403,1015.02 492.403,1015.02 489.916,1019.39 C489.916,1016.73 489.916,1014.58 489.916,1011.56" fill="#E8E8E8"/>
    <path d="M626.687,913.28 C623.473,914.188 620.194,914.172 616.573,914.064 C617.589,912.47 618.848,912.091 620.364,912.218 C622.34,913.358 624.782,911.721 626.687,913.28" fill="#DFE0DF"/>
    <path d="M582.206,944.987 C582.503,946.594 582.582,948.159 580.961,949.897 C579.764,947.469 580.17,945.234 580.491,943.009 C581.063,943.668 581.634,944.328 582.206,944.987" fill="#989898"/>
    <path d="M512.284,875.211 C509.635,877.278 506.067,874.995 503.422,877.081 C505.66,873.06 509.361,875.977 512.284,875.211" fill="#9C614D"/>
    <path d="M527.328,751.051 C524.337,751.052 521.346,751.053 518.356,751.053 C521.346,749.489 524.337,749.532 527.328,751.051" fill="#6C5C56"/>
    <path d="M626.687,913.28 C624.633,912.608 622.244,913.928 620.364,912.218 C622.869,911.985 625.387,911.483 627.826,912.564 C627.922,912.607 627.942,912.821 627.997,912.956 C627.561,913.064 627.124,913.172 626.687,913.28" fill="#E6E7E7"/>
    <path d="M385.406,868.225 C385.364,869.972 385.591,871.771 384.417,873.298 C384.126,872.908 383.835,872.519 383.544,872.13 C383.885,870.476 384.227,868.823 384.568,867.169 C385.389,867.091 385.983,867.193 385.406,868.225" fill="#2F211D"/>
    <path d="M513.405,788.008 C515.394,787.699 517.383,787.39 519.372,787.08 C517.709,788.106 516.046,789.132 514.383,790.158 C514.057,789.442 513.731,788.725 513.405,788.008" fill="#4C3F3B"/>
    <path d="M493.306,944.073 C492.988,946.741 494.217,949.583 492.406,952.082 C492.593,949.4 491.528,946.577 493.306,944.073" fill="#87685A"/>
    <path d="M494.302,934.002 C494.046,936.371 495.159,938.913 493.4,941.09 C493.544,938.707 492.571,936.183 494.302,934.002" fill="#876355"/>
    <path d="M741.288,884.135 C741.555,885.149 741.822,886.164 742.088,887.178 C741.817,887.86 741.546,888.541 741.275,889.223 C740.253,888.07 740.285,886.632 740.191,885.228 C739.865,884.17 740.332,883.907 741.288,884.135" fill="#4F4644"/>
    <path d="M481.283,900.867 C481.022,902.933 482.109,905.177 480.459,907.057 C480.517,904.965 479.628,902.747 481.283,900.867" fill="#99624F"/>
    <path d="M495.302,925.033 C495.096,927.074 496.067,929.291 494.396,931.113 C494.497,929.057 493.66,926.86 495.302,925.033" fill="#846356"/>
    <path d="M521.282,874.201 C519.455,875.854 517.244,874.847 515.21,875.076 C517.049,873.507 519.222,874.246 521.282,874.201" fill="#936552"/>
    <path d="M497.31,910.066 C497.157,911.772 497.947,913.651 496.392,915.102 C496.437,913.376 495.778,911.521 497.31,910.066" fill="#826255"/>
    <path d="M495.332,1080.21 C496.637,1080.55 497.942,1080.9 499.247,1081.24 C499.474,1082.18 499.208,1082.61 498.191,1082.26 C497.133,1082.13 495.982,1082.22 495.342,1081.08 C495.335,1080.79 495.332,1080.5 495.332,1080.21" fill="#352A25"/>
    <path d="M481.406,911.102 C482.768,912.159 482.176,913.709 482.403,915.051 C480.142,914.222 481.759,912.413 481.406,911.102" fill="#876558"/>
    <path d="M516.346,855.032 C517.78,853.493 519.647,854.282 521.334,854.102 C519.907,855.678 518.061,855 516.346,855.032" fill="#8D5E4F"/>
    <path d="M506.362,1194.21 C505.978,1195.25 505.594,1196.28 505.209,1197.32 C503.196,1198.42 501.648,1199.99 500.535,1201.99 C500.272,1202.04 500.007,1202.07 499.742,1202.11 C497.864,1202.12 496.348,1203.41 494.513,1203.58 C492.485,1203.18 490.022,1204.65 488.485,1202.17 C484.153,1202.11 481.633,1199.68 480.207,1195.82 C478.574,1194.19 478.558,1191.94 477.938,1189.92 C477.889,1188.21 478.188,1186.6 479.29,1185.22 C480.173,1180.01 483.488,1176.93 488.202,1175.07 C490.959,1175.01 493.716,1174.74 496.472,1175.1 C500.248,1177.31 504.991,1178.57 505.349,1184.14 C507.596,1187.3 506.688,1190.79 506.362,1194.21" fill="#FDFDFD"/>
    <path d="M792.662,1125.92 C812.468,1130.48 832.228,1130.62 851.844,1124.98 C857.714,1123.29 863.417,1121.01 869.196,1119.01 C870.237,1118.47 870.363,1119.04 870.26,1119.89 C860.012,1124.91 849.516,1129.31 838.597,1132.69 C821.99,1137.82 806.559,1133.49 791.385,1126.95 C791.288,1125.95 791.634,1125.51 792.662,1125.92" fill="#312420"/>
    <path d="M496.472,1175.1 C493.712,1176.15 490.955,1176.38 488.202,1175.07 C490.963,1173.72 493.72,1173.53 496.472,1175.1" fill="#4F4B4A"/>
    <path d="M506.362,1194.21 C505.277,1190.93 506.822,1187.38 505.349,1184.14 C508.853,1187.18 507.476,1190.71 506.362,1194.21" fill="#3A302D"/>
    <path d="M870.26,1119.89 C869.906,1119.59 869.551,1119.3 869.197,1119.01 C871.084,1117.75 872.929,1116.38 875.377,1116.5 L875.258,1116.8 C874.259,1118.91 872.051,1119.06 870.26,1119.89" fill="#5F5857"/>
    <path d="M479.29,1185.22 C479.023,1186.73 478.757,1188.24 478.49,1189.74 C478.607,1190.66 479.472,1191.88 477.603,1192.03 C477.638,1189.63 475.789,1186.76 479.29,1185.22" fill="#56504F"/>
    <path d="M385.43,863.164 C385.798,861.189 386.167,859.213 386.535,857.238 C387.467,857.009 387.897,857.275 387.572,858.287 C387.198,859.894 387.982,861.76 386.49,863.116 C386.157,863.579 385.803,863.573 385.43,863.164" fill="#9D9D9D"/>
    <path d="M477.603,1192.03 C477.898,1191.27 478.194,1190.5 478.49,1189.74 C479.063,1191.77 479.635,1193.8 480.207,1195.82 C477.322,1195.94 478.31,1193.4 477.603,1192.03" fill="#676261"/>
    <path d="M500.535,1201.99 C500.69,1199.03 502.274,1197.5 505.209,1197.32 C503.921,1199.15 502.389,1200.73 500.535,1201.99" fill="#5A5452"/>
    <path d="M488.485,1202.17 C490.656,1203.4 492.994,1202.97 495.3,1202.86 C495.541,1203.11 495.622,1203.36 495.542,1203.6 C495.462,1203.85 495.381,1203.98 495.301,1203.98 C492.997,1203.5 489.871,1206.12 488.485,1202.17" fill="#352A25"/>
    <path d="M741.288,884.135 C740.922,884.499 740.557,884.864 740.191,885.228 C739.19,883.843 738.993,882.343 739.548,880.606 C740.912,881.471 741.282,882.71 741.288,884.135" fill="#939393"/>
    <path d="M875.258,1116.8 L875.377,1116.5 C875.912,1114.74 877.153,1114.71 879.408,1114.82 C877.864,1116.5 876.74,1117.02 875.258,1116.8" fill="#655F5D"/>
    <path d="M792.662,1125.92 C792.237,1126.26 791.811,1126.6 791.385,1126.95 C790.034,1126.48 788.477,1126.39 787.03,1123.8 C789.462,1124.72 791.062,1125.32 792.662,1125.92" fill="#4E4645"/>
    <path d="M387.572,858.287 C387.226,857.937 386.881,857.588 386.535,857.238 C386.824,855.885 387.113,854.532 387.401,853.18 C388.318,852.884 388.735,853.127 388.44,854.141 C388.261,855.546 388.734,857.088 387.572,858.287" fill="#BEBEBF"/>
    <path d="M495.301,1203.98 C495.3,1203.6 495.3,1203.23 495.3,1202.86 C496.714,1202.22 497.933,1200.42 499.742,1202.11 C498.541,1203.39 496.991,1203.85 495.301,1203.98" fill="#676160"/>
    <path d="M388.44,854.141 C388.093,853.82 387.747,853.499 387.401,853.179 C387.278,851.945 387.842,850.977 388.987,849.369 C389.351,851.469 389.78,852.84 388.44,854.141" fill="#DFE0E0"/>
    <path d="M385.43,863.164 C385.783,863.148 386.137,863.132 386.49,863.116 C386.234,864.841 386.662,866.712 385.406,868.225 C385.126,867.873 384.847,867.521 384.568,867.169 C384.855,865.834 385.142,864.499 385.43,863.164" fill="#4B4544"/>
    <path d="M599.823,452.099 C590.543,452.573 581.698,450.518 573.705,445.033 C562.667,437.457 561.461,425.04 570.674,415.196 C577.817,407.565 586.852,403.645 596.729,401.527 C610.644,398.544 624.364,399.14 636.305,407.738 C648.759,416.705 648.26,431.558 635.888,440.807 C625.257,448.755 613.389,452.654 599.823,452.099" fill="#F9D1D0"/>
    <path d="M319.317,443.097 C308.144,442.96 297.927,439.955 289.856,431.964 C285.75,427.899 282.118,423.191 284.051,416.551 C286.179,409.242 291.736,405.726 298.49,404.336 C311.452,401.67 323.466,404.377 334.141,412.344 C341.655,417.952 344.558,424.475 342.55,430.838 C340.404,437.636 333.015,442.617 324.308,443.084 C322.649,443.173 320.981,443.097 319.317,443.097" fill="#F9D1D0"/>
    <path d="M374.678,519.612 C372.545,525.994 370.667,532.477 368.173,538.715 C366.87,541.972 367.712,543.289 370.521,544.887 C389.029,555.419 409.448,559.982 430.004,563.997 C460.729,569.998 491.746,571.966 522.934,568.964 C567.71,564.654 608.682,551.001 641.886,519.007 C648.589,512.547 648.573,512.534 641.98,505.979 C640.681,504.688 639.369,503.408 638.122,502.068 C637.088,500.957 636.808,499.705 638.077,498.583 C639.162,497.622 640.265,498.011 641.18,498.91 C644.982,502.644 648.81,506.353 652.524,510.173 C654.999,512.718 652.646,514.353 651.12,516.007 C634.273,534.269 614.143,547.754 591.232,557.23 C560.945,569.757 529.196,574.518 496.679,574.629 C460.01,574.753 424.083,569.549 389.132,558.189 C380.557,555.402 372.649,551.226 364.854,546.768 C361.94,545.101 361.376,543.379 363.007,540.323 C366.717,533.372 370.098,526.246 373.613,519.191 C373.968,519.332 374.323,519.472 374.678,519.612" fill="#2F201B"/>
    <path d="M502.289,245.972 C503.53,243.936 504.524,242.206 505.61,240.535 C519.085,219.796 540.391,215.541 560.72,229.798 C576.801,241.076 585.031,257.605 590.399,275.851 C591.913,280.997 593.341,286.224 592.651,292.63 C589.782,289.314 588.661,286.046 587.157,283.022 C581.296,271.231 575.149,259.601 566.041,249.915 C556.704,239.986 545.892,232.917 531.472,234.204 C522.477,235.007 514.659,239.065 507.11,243.738 C505.778,244.562 504.775,246.134 502.289,245.972" fill="#2F201B"/>
    <path d="M376.158,357.243 C376.756,364.591 376.604,371.909 374.16,378.933 C373.029,382.185 371.634,385.741 367.511,386.254 C363.38,386.768 361.045,383.804 359.364,380.744 C351.557,366.532 349.956,351.517 354.406,335.95 C355.312,332.777 356.898,329.544 360.772,329.018 C364.922,328.454 367.125,331.504 369.02,334.424 C372.694,340.085 374.469,346.47 375.426,353.101 C375.025,353.385 374.581,353.47 374.1,353.387 C372.859,352.949 371.895,351.944 370.584,351.651 C368.194,351.117 366.332,351.91 365.237,354.083 C364.239,356.062 364.617,357.986 366.249,359.465 C368.055,361.103 370.079,361.192 372.074,359.714 C373.128,358.933 373.73,357.667 374.902,356.996 C375.378,356.785 375.794,356.883 376.158,357.243" fill="#2F201B"/>
    <path d="M539.236,350.192 C539.678,357.516 539.888,364.842 537.31,371.871 C536.11,375.145 534.735,378.65 530.662,379.185 C526.524,379.729 524.154,376.671 522.508,373.658 C514.754,359.458 513.061,344.444 517.549,328.882 C518.457,325.733 520.03,322.463 523.923,321.943 C528.06,321.391 530.263,324.392 532.169,327.324 C535.663,332.697 537.379,338.764 538.477,345.023 C538.803,345.983 538.248,346.293 537.448,346.423 C536.103,346.176 535.14,345.103 533.849,344.74 C531.456,344.066 529.523,344.751 528.317,346.926 C527.222,348.902 527.546,350.851 529.177,352.4 C530.984,354.116 533.04,354.172 535.108,352.806 C536.23,352.065 536.896,350.832 537.977,350.033 C538.435,349.786 538.855,349.841 539.236,350.192" fill="#2F201B"/>
    <path d="M321.323,278.669 C321.076,268.141 322.07,257.778 326.159,247.985 C326.797,246.455 327.483,244.932 328.298,243.491 C332.982,235.203 339.492,228.654 349.503,229.53 C359.912,230.441 365.98,237.92 369.851,247.213 C370.599,249.01 370.496,250.774 370.209,252.946 C366.514,248.506 362.42,244.83 357.553,242.137 C350.121,238.026 344.512,238.996 338.949,245.439 C333.34,251.934 329.81,259.663 326.319,267.394 C324.627,271.14 322.987,274.91 321.323,278.669" fill="#2F201B"/>
    <path d="M822.594,367.81 C824.209,367.638 825.815,367.79 825.999,369.737 C826.144,371.273 824.98,371.957 823.447,372.172 C811.197,373.89 803.368,381.713 796.975,391.475 C793.5,396.782 790.927,402.534 788.694,408.453 C787.954,410.414 787.716,411.559 790.563,412.163 C797.712,413.68 803.136,417.415 804.237,425.351 C805.171,432.09 800.943,439.893 794.373,443.627 C792.844,444.496 791.023,445.937 789.715,443.523 C788.572,441.413 790.531,440.692 791.919,439.822 C792.622,439.382 793.306,438.903 793.95,438.381 C798.41,434.765 800.949,430.281 799.413,424.428 C797.917,418.723 793.147,417.036 788.052,416.214 C781.921,415.224 781.716,415.178 783.591,409.537 C787.508,397.749 792.915,386.782 802.004,378.021 C807.77,372.464 814.515,368.763 822.594,367.81" fill="#30211D"/>
    <path d="M411.474,417.955 C405.78,418.566 401.554,417.101 397.221,417.71 C393.218,418.273 391.006,420.152 390.036,424.109 C388.912,428.696 389.577,433.015 391.012,437.342 C393.142,443.759 396.704,449.352 401.113,454.4 C403.233,456.829 402.913,458.964 400.738,460.898 C398.224,463.133 396.468,461.409 395.038,459.368 C387.781,449.013 382.755,437.98 385.232,424.88 C386.81,416.537 389.449,414.517 397.828,414.865 C402.113,415.043 406.227,415.937 411.474,417.955" fill="#30231E"/>
    <path d="M412.246,418.57 C414.238,417.526 415.308,418.668 416.613,419.509 C414.916,420.785 413.74,419.933 412.246,418.57" fill="#9F9896"/>
    <path d="M374.386,353.065 C374.733,353.077 375.079,353.089 375.426,353.101 C376.769,354.287 376.285,355.796 376.158,357.243 L375.754,357.259 L375.371,357.128 C373.96,356.036 373.186,354.79 374.386,353.065" fill="#95908E"/>
    <path d="M539.236,350.192 L538.826,350.14 L538.414,350.162 C537.117,348.999 536.524,347.677 537.468,346.004 C537.805,345.677 538.141,345.35 538.477,345.023 C539.852,346.581 539.327,348.418 539.236,350.192" fill="#999392"/>
    <path d="M498.191,1082.26 C498.543,1081.92 498.895,1081.58 499.247,1081.24 C500.65,1081.26 502.054,1081.27 503.458,1081.28 C504.01,1081.81 505.005,1081.36 505.426,1082.17 C503.03,1083.57 500.62,1083.71 498.191,1082.26" fill="#838283"/>
    <path d="M506.529,1054.1 C503.832,1054.12 501.135,1054.14 498.438,1054.16 C497.525,1054.69 497.35,1054.21 497.414,1053.41 C500.506,1052.94 503.622,1052.15 506.529,1054.1" fill="#30231E"/>
    <path d="M497.414,1053.41 C497.755,1053.66 498.097,1053.91 498.438,1054.16 C496.819,1055.08 495.293,1056.24 493.282,1056.15 C494.084,1054.37 495.396,1053.35 497.414,1053.41" fill="#4D4644"/>
    <path d="M515.131,1071.06 C515.157,1069.13 515.182,1067.19 515.208,1065.26 C514.743,1064.28 515.211,1064.07 516.083,1064.21 C516.594,1066.49 516.618,1068.78 516.13,1071.07 C515.796,1071.45 515.463,1071.45 515.131,1071.06" fill="#352825"/>
    <path d="M511.175,1058.03 C509.936,1057.13 508.697,1056.23 507.459,1055.33 C509.808,1054.7 511.457,1055.03 511.175,1058.03" fill="#585350"/>
    <path d="M516.083,1064.21 C515.791,1064.56 515.5,1064.91 515.208,1065.26 C514.345,1063.84 513.318,1062.45 514.333,1060.67 C515.826,1061.4 515.785,1062.89 516.083,1064.21" fill="#6B6767"/>
    <path d="M515.131,1071.06 C515.464,1071.07 515.797,1071.07 516.13,1071.07 C515.89,1072.53 515.684,1074 514.374,1074.98 C513.825,1073.52 513.972,1072.2 515.131,1071.06" fill="#554D4A"/>
    <path d="M505.426,1082.17 C504.77,1081.88 504.114,1081.58 503.458,1081.28 C504.846,1081.56 506.147,1079.86 507.579,1081.1 C507.215,1082.17 506.28,1082.09 505.426,1082.17" fill="#3D332F"/>
    <path d="M519.299,787.127 C519.697,786.171 520.588,786.133 521.42,785.985 C523.361,785.401 525.303,785.429 527.247,785.967 C528.093,786.106 528.941,786.241 529.408,787.102 C526.038,787.111 522.669,787.119 519.299,787.127" fill="#392C29"/>
    <path d="M527.247,785.967 C525.304,785.974 523.361,785.98 521.419,785.986 C523.358,784.609 525.3,784.613 527.247,785.967" fill="#A25A46"/>
    <path d="M374.386,353.065 C374.714,354.419 375.043,355.773 375.371,357.128 C374.362,359.47 373.156,361.655 370.331,362.117 C367.13,362.64 364.694,361.357 363.509,358.401 C362.329,355.462 363.056,352.735 365.839,351.015 C369.264,348.898 372.144,349.846 374.386,353.065" fill="#FCFCFC"/>
    <path d="M537.468,346.004 C537.783,347.39 538.099,348.776 538.414,350.162 C536.955,354.178 534.284,356.194 530.005,354.664 C527.466,353.756 526.144,351.652 526.216,348.84 C526.287,346.018 527.776,344.053 530.323,343.23 C533.286,342.272 535.87,343.063 537.468,346.004" fill="#FDFDFD"/>
  </g>
</svg>
