<?xml version="1.0" encoding="UTF-8"?>
<!-- Created with Inkscape (http://www.inkscape.org/) -->
<svg width="229.93mm" height="90.858mm" version="1.1" viewBox="0 0 229.93 90.858" xmlns="http://www.w3.org/2000/svg" xmlns:cc="http://creativecommons.org/ns#" xmlns:dc="http://purl.org/dc/elements/1.1/" xmlns:rdf="http://www.w3.org/1999/02/22-rdf-syntax-ns#"><defs><clipPath id="clipPath854"><path d="m0 307h698v-307h-698z"/></clipPath></defs><metadata><rdf:RDF><cc:Work rdf:about=""><dc:format>image/svg+xml</dc:format><dc:type rdf:resource="http://purl.org/dc/dcmitype/StillImage"/><dc:title/></cc:Work></rdf:RDF></metadata><g transform="translate(17.446 -85.262)"><g transform="matrix(.35278 0 0 -.35278 -25.602 184.84)"><path d="m23.119 24.725h318.58v257.55h-318.58z" fill="#bf0c26"/><path d="m341.8 24.725h333.08v257.55h-333.08z" fill="#001b69"/><g clip-path="url(#clipPath854)"><g transform="translate(291.43 178.49)"><path d="m0 0h15.865v58.18s0.37 11.188-11.939 11.188h-216.57s-13.1 2.237-14.221-12.304l0.114-21.296h-21.798v-18.071h21.966v-124.7s0.055-1.446 0.218-2.043c0.787-2.864 3.043-10.122 15.614-10.394 0.56-8e-3 2.678 0.168 2.678 0.168h213.1s11.513-0.436 11.513 11.87v58.029h-16.531v-44.81l0.097 0.178c0-8.864-7.743-8.66-7.743-8.66h-191.07l-2.038-0.017c-8.866 0-8.598 8.056-8.598 8.056v113.17h26.236v-104.04h16.633v104.68h59.855v16.586h-102.55v13.691l-0.054 0.786c0 1.794 1.452 3.246 3.243 3.246l197.18-0.417 0.903-0.012c8.821-0.907 7.824-8.593 7.824-8.593v-44.161" fill="#fff"/></g><g transform="translate(242.69 148.77)"><path d="m0 0h-80.592l0.104 24.71h80.488c8.729 0 15.809-5.53 15.809-12.354 0-6.823-7.08-12.356-15.809-12.356m0-42.921h-80.592l0.104 24.71h80.488c8.729 0 15.809-5.533 15.809-12.356 0-6.824-7.08-12.354-15.809-12.354m17.583 33.668-0.436-4e-3c11.541 1.907 20.363 12.295 20.363 24.812 0 13.88-10.833 25.13-24.187 25.13l0.863 0.075h-110.55l0.14-99.874h109.55c13.354 0 24.187 11.25 24.187 25.123 0 12.368-8.604 22.644-19.927 24.738" fill="#fff"/></g><g transform="translate(394.81 83.287)"><path d="m0 0h-6.21v-23.72h-5.732v23.72h-6.21v4.701h18.152" fill="#fff"/></g><g transform="translate(404.32 74.871)"><path d="m0 0c-0.078 0.621-0.218 1.156-0.417 1.592-0.199 0.439-0.479 0.77-0.836 0.993-0.358 0.23-0.818 0.344-1.372 0.344-0.557 0-1.017-0.131-1.377-0.382-0.355-0.251-0.642-0.583-0.853-0.995-0.213-0.412-0.367-0.867-0.457-1.374-0.095-0.505-0.14-1.01-0.14-1.51v-0.841h5.613c-0.028 0.825-0.08 1.55-0.161 2.173m-5.452-7.146c0-0.635 0.045-1.256 0.14-1.848 0.09-0.6 0.244-1.128 0.457-1.592 0.211-0.467 0.491-0.839 0.836-1.116 0.342-0.278 0.766-0.42 1.273-0.42 0.929 0 1.604 0.334 2.03 0.995 0.425 0.664 0.716 1.675 0.877 3.026h4.933c-0.107-2.495-0.77-4.39-1.988-5.691-1.222-1.303-3.146-1.953-5.772-1.953-1.992 0-3.544 0.334-4.655 0.996-1.116 0.663-1.941 1.542-2.472 2.627-0.53 1.088-0.855 2.31-0.974 3.663-0.12 1.351-0.177 2.708-0.177 4.059 0 1.433 0.097 2.812 0.296 4.142 0.199 1.329 0.597 2.506 1.194 3.542 0.6 1.033 1.455 1.858 2.569 2.466 1.113 0.612 2.601 0.915 4.459 0.915 1.59 0 2.895-0.256 3.916-0.772 1.024-0.519 1.827-1.249 2.412-2.192 0.581-0.943 0.981-2.083 1.192-3.424 0.213-1.341 0.32-2.831 0.32-4.478v-1.234h-10.866" fill="#fff"/></g><g transform="translate(428.64 80.981)"><path d="m0 0-5.573-10.39 5.812-11.025h-5.731l-3.185 7.004-3.184-7.004h-5.732l5.812 11.025-5.575 10.39h5.734l2.945-6.447 2.945 6.447" fill="#fff"/></g><g transform="translate(437.68 87.111)"><path d="m0 0v-6.13h3.184v-3.743h-3.184v-11.584c0-0.846 0.126-1.453 0.377-1.81 0.253-0.356 0.777-0.536 1.573-0.536 0.213 0 0.424 7e-3 0.635 0.017 0.213 0.014 0.412 0.033 0.599 0.061v-3.819c-0.611 0-1.201-0.021-1.772-0.062-0.571-0.04-1.173-0.059-1.812-0.059-1.06 0-1.929 0.073-2.607 0.22-0.677 0.145-1.194 0.436-1.549 0.875-0.361 0.438-0.607 1.011-0.737 1.732-0.133 0.718-0.202 1.616-0.202 2.706v12.259h-2.786v3.743h2.786v6.13" fill="#fff"/></g><g transform="translate(460.44 63.784)"><path d="m0 0c1.379 0 2.495 0.308 3.343 0.915 0.851 0.613 1.275 1.741 1.275 3.388 0 0.822-0.114 1.504-0.339 2.047-0.225 0.545-0.531 0.981-0.915 1.317-0.386 0.33-0.843 0.559-1.374 0.695-0.53 0.135-1.113 0.199-1.751 0.199h-2.469v-8.561zm-0.597 12.541c1.594 0 2.753 0.284 3.485 0.853 0.728 0.573 1.095 1.535 1.095 2.886 0 1.355-0.337 2.308-0.998 2.865-0.663 0.561-1.71 0.838-3.144 0.838h-2.071v-7.442zm2.23 11.662c1.165 0 2.25-0.123 3.243-0.358 0.995-0.239 1.851-0.637 2.566-1.194 0.718-0.554 1.275-1.303 1.675-2.229 0.396-0.929 0.597-2.069 0.597-3.424 0-1.54-0.36-2.86-1.078-3.959-0.715-1.102-1.791-1.851-3.222-2.251v-0.081c1.592-0.211 2.853-0.886 3.781-2.028 0.927-1.14 1.391-2.668 1.391-4.575 0-1.116-0.144-2.178-0.433-3.189-0.294-1.005-0.792-1.889-1.495-2.645-0.704-0.756-1.621-1.36-2.749-1.81-1.125-0.452-2.528-0.678-4.196-0.678h-9.674v28.421" fill="#fff"/></g><g transform="translate(479.31 67.248)"><path d="m0 0c0.054-0.926 0.18-1.725 0.379-2.386 0.199-0.668 0.498-1.185 0.898-1.557 0.398-0.374 0.927-0.557 1.59-0.557 1.114 0 1.883 0.581 2.308 1.754 0.426 1.163 0.637 3.09 0.637 5.769 0 2.68-0.211 4.606-0.637 5.772-0.425 1.168-1.194 1.753-2.308 1.753-0.663 0-1.192-0.187-1.59-0.556-0.4-0.375-0.699-0.894-0.898-1.552-0.199-0.664-0.325-1.462-0.379-2.391-0.052-0.931-0.081-1.936-0.081-3.026s0.029-2.097 0.081-3.023m-5.135 7.878c0.294 1.408 0.77 2.585 1.436 3.528 0.661 0.938 1.531 1.659 2.607 2.147 1.073 0.49 2.393 0.737 3.959 0.737 1.647 0.023 3.011-0.195 4.099-0.657 1.09-0.464 1.952-1.175 2.59-2.132 0.635-0.953 1.085-2.137 1.35-3.542 0.268-1.405 0.398-3.05 0.398-4.936 0-1.829-0.144-3.447-0.438-4.855-0.289-1.407-0.768-2.582-1.429-3.523-0.666-0.94-1.533-1.642-2.609-2.09-1.075-0.45-2.395-0.677-3.961-0.677-1.644-0.024-3.012 0.177-4.102 0.618-1.087 0.436-1.947 1.128-2.585 2.069-0.637 0.943-1.089 2.125-1.352 3.542-0.268 1.421-0.398 3.056-0.398 4.916 0 1.834 0.146 3.45 0.435 4.855" fill="#fff"/></g><g transform="translate(498.42 67.248)"><path d="m0 0c0.054-0.926 0.178-1.725 0.377-2.386 0.199-0.668 0.5-1.185 0.895-1.557 0.401-0.374 0.929-0.557 1.593-0.557 1.116 0 1.885 0.581 2.31 1.754 0.424 1.163 0.637 3.09 0.637 5.769 0 2.68-0.213 4.606-0.637 5.772-0.425 1.168-1.194 1.753-2.31 1.753-0.664 0-1.192-0.187-1.593-0.556-0.395-0.375-0.696-0.894-0.895-1.552-0.199-0.664-0.323-1.462-0.377-2.391-0.052-0.931-0.081-1.936-0.081-3.026s0.029-2.097 0.081-3.023m-5.137 7.878c0.294 1.408 0.77 2.585 1.434 3.528 0.663 0.938 1.533 1.659 2.608 2.147 1.076 0.49 2.396 0.737 3.96 0.737 1.646 0.023 3.011-0.195 4.101-0.657 1.09-0.464 1.95-1.175 2.587-2.132 0.638-0.953 1.088-2.137 1.353-3.542 0.266-1.405 0.398-3.05 0.398-4.936 0-1.829-0.144-3.447-0.438-4.855-0.292-1.407-0.77-2.582-1.434-3.523-0.663-0.94-1.53-1.642-2.606-2.09-1.076-0.45-2.395-0.677-3.961-0.677-1.645-0.024-3.01 0.177-4.1 0.618-1.087 0.436-1.95 1.128-2.585 2.069-0.639 0.943-1.092 2.125-1.355 3.542-0.265 1.421-0.398 3.056-0.398 4.916 0 1.834 0.147 3.45 0.436 4.855" fill="#fff"/></g><g transform="translate(518.36 72.98)"><path d="m0 0h0.081l5.532 7.999h6.047l-6.168-8.435 7.085-12.98h-6.049l-4.576 8.796-1.952-2.545v-6.251h-5.495v28.421h5.495" fill="#fff"/></g><g transform="translate(551.3 82.91)"><path d="m0 0c-0.493 0.943-1.389 1.414-2.689 1.414-0.716 0-1.306-0.191-1.773-0.575-0.462-0.387-0.827-1.01-1.089-1.874-0.268-0.865-0.455-1.988-0.56-3.382-0.106-1.395-0.158-3.096-0.158-5.115 0-2.149 0.073-3.888 0.215-5.215 0.147-1.325 0.375-2.353 0.678-3.087 0.308-0.728 0.692-1.218 1.156-1.469 0.462-0.254 1.005-0.38 1.611-0.38 0.505 0 0.976 0.086 1.415 0.263 0.436 0.171 0.817 0.515 1.135 1.031 0.317 0.519 0.571 1.249 0.753 2.192 0.19 0.94 0.28 2.18 0.28 3.72h5.731c0-1.54-0.118-2.997-0.357-4.379-0.24-1.381-0.685-2.587-1.332-3.623-0.654-1.033-1.569-1.845-2.749-2.426-1.179-0.583-2.713-0.879-4.596-0.879-2.149 0-3.862 0.348-5.135 1.035-1.274 0.692-2.251 1.685-2.923 2.986-0.678 1.301-1.116 2.855-1.315 4.658s-0.301 3.794-0.301 5.971c0 2.149 0.102 4.135 0.301 5.949 0.199 1.82 0.637 3.379 1.315 4.68 0.672 1.298 1.649 2.313 2.923 3.042 1.273 0.73 2.986 1.097 5.135 1.097 2.042 0 3.656-0.334 4.836-0.997 1.18-0.664 2.063-1.505 2.649-2.528 0.58-1.021 0.945-2.123 1.094-3.301 0.145-1.182 0.218-2.291 0.218-3.324h-5.733c0 2.068-0.245 3.575-0.735 4.516" fill="#fff"/></g><g transform="translate(571.26 74.871)"><path d="m0 0c-0.081 0.621-0.218 1.156-0.419 1.592-0.197 0.439-0.477 0.77-0.837 0.993-0.355 0.23-0.815 0.344-1.372 0.344s-1.014-0.131-1.374-0.382c-0.355-0.251-0.645-0.583-0.855-0.995-0.214-0.412-0.365-0.867-0.458-1.374-0.094-0.505-0.139-1.01-0.139-1.51v-0.841h5.613c-0.026 0.825-0.078 1.55-0.159 2.173m-5.454-7.146c0-0.635 0.045-1.256 0.139-1.848 0.093-0.6 0.244-1.128 0.458-1.592 0.21-0.467 0.49-0.839 0.836-1.116 0.344-0.278 0.77-0.42 1.275-0.42 0.929 0 1.604 0.334 2.028 0.995 0.424 0.664 0.718 1.675 0.877 3.026h4.937c-0.109-2.495-0.772-4.39-1.992-5.691-1.22-1.303-3.144-1.953-5.772-1.953-1.99 0-3.545 0.334-4.658 0.996-1.112 0.663-1.936 1.542-2.467 2.627-0.531 1.088-0.855 2.31-0.976 3.663-0.118 1.351-0.175 2.708-0.175 4.059 0 1.433 0.094 2.812 0.296 4.142 0.199 1.329 0.597 2.506 1.194 3.542 0.599 1.033 1.45 1.858 2.566 2.466 1.114 0.612 2.602 0.915 4.459 0.915 1.59 0 2.898-0.256 3.919-0.772 1.024-0.519 1.827-1.249 2.41-2.192 0.58-0.943 0.981-2.083 1.196-3.424 0.211-1.341 0.316-2.831 0.316-4.478v-1.234h-10.866" fill="#fff"/></g><g transform="translate(584.79 80.981)"><path d="m0 0v-2.507h0.081c0.585 1.064 1.338 1.839 2.269 2.329 0.929 0.491 1.988 0.735 3.185 0.735 1.751 0 3.097-0.476 4.037-1.434 0.943-0.955 1.412-2.504 1.412-4.658v-15.88h-5.492v14.766c0 1.114-0.185 1.896-0.554 2.332-0.375 0.436-0.974 0.654-1.794 0.654-1.938 0-2.902-1.18-2.902-3.542v-14.21h-5.497v21.415" fill="#fff"/></g><g transform="translate(606.13 87.111)"><path d="m0 0v-6.13h3.184v-3.743h-3.184v-11.584c0-0.846 0.13-1.453 0.377-1.81 0.253-0.356 0.779-0.536 1.575-0.536 0.211 0 0.422 7e-3 0.635 0.017 0.211 0.014 0.413 0.033 0.597 0.061v-3.819c-0.611 0-1.199-0.021-1.772-0.062-0.569-0.04-1.175-0.059-1.812-0.059-1.06 0-1.929 0.073-2.604 0.22-0.676 0.145-1.197 0.436-1.552 0.875-0.361 0.438-0.605 1.011-0.737 1.732-0.135 0.718-0.199 1.616-0.199 2.706v12.259h-2.789v3.743h2.789v6.13" fill="#fff"/></g><g transform="translate(616.48 80.981)"><path d="m0 0v-2.862h0.083c0.557 1.03 1.234 1.86 2.026 2.485 0.798 0.623 1.767 0.934 2.909 0.934 0.157 0 0.325-7e-3 0.495-0.022 0.176-0.011 0.339-0.03 0.496-0.056v-5.256c-0.287 0.026-0.574 0.048-0.853 0.062-0.278 0.012-0.564 0.019-0.856 0.019-0.478 0-0.957-0.066-1.433-0.199-0.479-0.133-0.917-0.351-1.315-0.654-0.391-0.308-0.713-0.709-0.953-1.199-0.239-0.488-0.357-1.092-0.357-1.81v-12.857h-5.495v21.415" fill="#fff"/></g><g transform="translate(634.63 74.871)"><path d="m0 0c-0.081 0.621-0.218 1.156-0.419 1.592-0.197 0.439-0.477 0.77-0.839 0.993-0.356 0.23-0.813 0.344-1.37 0.344s-1.016-0.131-1.376-0.382c-0.353-0.251-0.638-0.583-0.856-0.995-0.208-0.412-0.362-0.867-0.455-1.374-0.092-0.505-0.139-1.01-0.139-1.51v-0.841h5.61c-0.023 0.825-0.08 1.55-0.156 2.173m-5.454-7.146c0-0.635 0.047-1.256 0.139-1.848 0.093-0.6 0.247-1.128 0.455-1.592 0.218-0.467 0.493-0.839 0.837-1.116 0.343-0.278 0.77-0.42 1.277-0.42 0.929 0 1.604 0.334 2.028 0.995 0.424 0.664 0.718 1.675 0.874 3.026h4.938c-0.109-2.495-0.77-4.39-1.99-5.691-1.22-1.303-3.147-1.953-5.772-1.953-1.99 0-3.545 0.334-4.653 0.996-1.119 0.663-1.941 1.542-2.474 2.627-0.529 1.088-0.853 2.31-0.972 3.663-0.12 1.351-0.18 2.708-0.18 4.059 0 1.433 0.097 2.812 0.299 4.142 0.197 1.329 0.597 2.506 1.194 3.542 0.597 1.033 1.453 1.858 2.569 2.466 1.111 0.612 2.601 0.915 4.459 0.915 1.587 0 2.895-0.256 3.916-0.772 1.024-0.519 1.822-1.249 2.41-2.192 0.583-0.943 0.983-2.083 1.194-3.424s0.318-2.831 0.318-4.478v-1.234h-10.866" fill="#fff"/></g></g></g></g></svg>
