<?xml version="1.0" encoding="UTF-8"?>
<!-- Created with Inkscape (http://www.inkscape.org/) -->
<svg width="112.39mm" height="90.858mm" version="1.1" viewBox="0 0 112.39 90.858" xmlns="http://www.w3.org/2000/svg" xmlns:cc="http://creativecommons.org/ns#" xmlns:dc="http://purl.org/dc/elements/1.1/" xmlns:rdf="http://www.w3.org/1999/02/22-rdf-syntax-ns#"><metadata><rdf:RDF><cc:Work rdf:about=""><dc:format>image/svg+xml</dc:format><dc:type rdf:resource="http://purl.org/dc/dcmitype/StillImage"/><dc:title/></cc:Work></rdf:RDF></metadata><path d="m0 90.858h112.39v-90.858h-112.39z" fill="#bf0c26" stroke-width=".35278"/><g transform="matrix(.35278 0 0 -.35278 94.655 36.613)"><path d="m0 0h15.865v58.18s0.37 11.188-11.939 11.188h-216.57s-13.1 2.237-14.221-12.304l0.114-21.296h-21.798v-18.071h21.966v-124.7s0.055-1.446 0.218-2.043c0.787-2.864 3.043-10.122 15.614-10.394 0.56-8e-3 2.678 0.168 2.678 0.168h213.1s11.513-0.436 11.513 11.87v58.029h-16.531v-44.81l0.097 0.178c0-8.864-7.743-8.66-7.743-8.66h-191.07l-2.038-0.017c-8.866 0-8.598 8.056-8.598 8.056v113.17h26.236v-104.04h16.633v104.68h59.855v16.586h-102.55v13.691l-0.054 0.786c0 1.794 1.452 3.246 3.243 3.246l197.18-0.417 0.903-0.012c8.821-0.907 7.824-8.593 7.824-8.593v-44.161" fill="#fff"/></g><g transform="matrix(.35278 0 0 -.35278 77.46 47.098)"><path d="m0 0h-80.592l0.104 24.71h80.488c8.729 0 15.809-5.53 15.809-12.354 0-6.823-7.08-12.356-15.809-12.356m0-42.921h-80.592l0.104 24.71h80.488c8.729 0 15.809-5.533 15.809-12.356 0-6.824-7.08-12.354-15.809-12.354m17.583 33.668-0.436-4e-3c11.541 1.907 20.363 12.295 20.363 24.812 0 13.88-10.833 25.13-24.187 25.13l0.863 0.075h-110.55l0.14-99.874h109.55c13.354 0 24.187 11.25 24.187 25.123 0 12.368-8.604 22.644-19.927 24.738" fill="#fff"/></g></svg>
